<svg viewBox="0 0 400 400" fill="none" xmlns="http://www.w3.org/2000/svg"><g id="SVGRepo_bgCarrier" stroke-width="0"></g><g id="SVGRepo_tracerCarrier" stroke-linecap="round" stroke-linejoin="round"></g><g id="SVGRepo_iconCarrier"> <path d="M106.557 309.48C106.557 282.172 106.557 268.048 106.557 240.74C106.557 236.579 138.811 238.865 142.94 238.865C197.818 238.865 252.382 237.618 307.293 237.618" stroke="#000000" stroke-opacity="0.9" stroke-width="16" stroke-linecap="round" stroke-linejoin="round"></path> <path d="M290.046 240.492C291.861 263.038 291.012 302.471 293.879 317.145" stroke="#000000" stroke-opacity="0.9" stroke-width="16" stroke-linecap="round" stroke-linejoin="round"></path> <path d="M85 166.714C99.4391 138.675 98.7388 103.072 114.703 89.1033C122.368 82.3962 278.805 79.8779 282.594 84.4532C292.88 96.8638 303.576 143.054 314 161.923" stroke="#000000" stroke-opacity="0.9" stroke-width="16" stroke-linecap="round" stroke-linejoin="round"></path> <path d="M85 168.73C90.3375 196.135 144.439 155.163 149.44 157.687C164.798 165.426 171.322 178.353 192.618 172.629C196.436 171.602 225.378 152.199 228.705 154.437C264.662 178.603 260.83 165.712 303.46 160.933" stroke="#000000" stroke-opacity="0.9" stroke-width="16" stroke-linecap="round" stroke-linejoin="round"></path> <path d="M107.038 178.212C107.778 196.568 107.507 231.38 110.87 239.534" stroke="#000000" stroke-opacity="0.9" stroke-width="16" stroke-linecap="round" stroke-linejoin="round"></path> <path d="M157.186 175.337C159.029 193.848 154.687 212.563 156.542 230.911" stroke="#000000" stroke-opacity="0.9" stroke-width="16" stroke-linecap="round" stroke-linejoin="round"></path> <path d="M289.52 171.505C288.152 194.568 292.744 217.502 292.744 240.492" stroke="#000000" stroke-opacity="0.9" stroke-width="16" stroke-linecap="round" stroke-linejoin="round"></path> <path d="M207.702 168.033C212.149 165.227 223.24 159.596 228.73 162.967C247.267 174.352 236.69 207.915 215.743 207.915C197.548 207.915 174.286 181.149 199.661 173.732" stroke="#000000" stroke-opacity="0.9" stroke-width="16" stroke-linecap="round" stroke-linejoin="round"></path> <path d="M188.481 229.741C216.15 200.207 224.876 206.01 238.305 241.451" stroke="#000000" stroke-opacity="0.9" stroke-width="16" stroke-linecap="round" stroke-linejoin="round"></path> <path d="M140.573 192.013C131.374 191.358 123.509 190.662 114.703 192.013" stroke="#000000" stroke-opacity="0.9" stroke-width="16" stroke-linecap="round" stroke-linejoin="round"></path> <path d="M142.49 214.3C133.259 214.912 123.811 214.323 114.703 214.944" stroke="#000000" stroke-opacity="0.9" stroke-width="16" stroke-linecap="round" stroke-linejoin="round"></path> </g></svg>