 <svg width="24" height="24" viewBox="0 0 24 24" fill="none" xmlns="http://www.w3.org/2000/svg">
<path d="M22.95 14.1C22.8712 14.1591 22.7815 14.2021 22.6861 14.2266C22.5907 14.251 22.4914 14.2564 22.3939 14.2425C22.2964 14.2285 22.2026 14.1956 22.1179 14.1454C22.0331 14.0952 21.9591 14.0288 21.9 13.95C21.448 13.3424 20.8595 12.8494 20.1822 12.5107C19.5048 12.172 18.7573 11.9971 18 12C17.8525 12 17.7083 11.9565 17.5854 11.875C17.4625 11.7934 17.3664 11.6775 17.3091 11.5416C17.2701 11.4493 17.2501 11.3502 17.2501 11.25C17.2501 11.1499 17.2701 11.0507 17.3091 10.9585C17.3664 10.8226 17.4625 10.7066 17.5854 10.6251C17.7083 10.5435 17.8525 10.5 18 10.5C18.4208 10.5 18.8332 10.3819 19.1903 10.1593C19.5474 9.93662 19.8349 9.61828 20.0201 9.24043C20.2053 8.86257 20.2809 8.44034 20.2382 8.0217C20.1955 7.60305 20.0362 7.20477 19.7785 6.8721C19.5208 6.53942 19.175 6.28569 18.7803 6.13972C18.3856 5.99374 17.9579 5.96138 17.5457 6.04631C17.1336 6.13124 16.7535 6.33005 16.4486 6.62016C16.1438 6.91027 15.9265 7.28006 15.8212 7.68751C15.7966 7.78293 15.7535 7.87256 15.6942 7.95129C15.6349 8.03001 15.5607 8.0963 15.4759 8.14635C15.391 8.19641 15.2971 8.22926 15.1995 8.24302C15.1019 8.25679 15.0026 8.2512 14.9072 8.22658C14.8118 8.20195 14.7221 8.15878 14.6434 8.09952C14.5647 8.04026 14.4984 7.96607 14.4483 7.88119C14.3983 7.79631 14.3654 7.7024 14.3517 7.60483C14.3379 7.50726 14.3435 7.40793 14.3681 7.31251C14.5141 6.7475 14.79 6.22436 15.1738 5.78472C15.5576 5.34508 16.0387 5.00108 16.5788 4.78009C17.1189 4.5591 17.7032 4.46722 18.285 4.51176C18.8669 4.5563 19.4304 4.73603 19.9306 5.03665C20.4308 5.33727 20.8539 5.75048 21.1663 6.24341C21.4787 6.73633 21.6717 7.29536 21.7301 7.87602C21.7884 8.45668 21.7104 9.04294 21.5023 9.58815C21.2942 10.1334 20.9617 10.6225 20.5312 11.0166C21.5511 11.4581 22.4376 12.1588 23.1028 13.0491C23.1619 13.1281 23.2048 13.2179 23.2291 13.3136C23.2534 13.4092 23.2586 13.5086 23.2444 13.6063C23.2303 13.7039 23.1969 13.7977 23.1464 13.8825C23.0959 13.9672 23.0291 14.0411 22.95 14.1ZM17.8987 19.875C17.953 19.9604 17.9895 20.0558 18.0059 20.1556C18.0223 20.2555 18.0183 20.3576 17.9943 20.4558C17.9702 20.5541 17.9265 20.6464 17.8658 20.7273C17.8051 20.8083 17.7287 20.8761 17.6411 20.9267C17.5536 20.9773 17.4567 21.0097 17.3562 21.0219C17.2558 21.0341 17.154 21.0259 17.0568 20.9977C16.9597 20.9695 16.8693 20.9219 16.791 20.8579C16.7127 20.7939 16.6481 20.7146 16.6012 20.625C16.1288 19.825 15.4559 19.162 14.649 18.7015C13.8421 18.2409 12.9291 17.9986 12 17.9986C11.0709 17.9986 10.1579 18.2409 9.35098 18.7015C8.54408 19.162 7.87121 19.825 7.39875 20.625C7.35186 20.7146 7.28733 20.7939 7.20904 20.8579C7.13074 20.9219 7.0403 20.9695 6.94315 20.9977C6.84601 21.0259 6.74416 21.0341 6.64375 21.0219C6.54334 21.0097 6.44643 20.9773 6.35885 20.9267C6.27128 20.8761 6.19485 20.8083 6.13416 20.7273C6.07348 20.6464 6.02979 20.5541 6.00572 20.4558C5.98166 20.3576 5.97771 20.2555 5.99413 20.1556C6.01055 20.0558 6.04698 19.9604 6.10125 19.875C6.82837 18.6257 7.93706 17.6425 9.26437 17.07C8.51749 16.4982 7.96859 15.7067 7.69481 14.8067C7.42104 13.9068 7.43616 12.9437 7.73804 12.0528C8.03993 11.1619 8.61342 10.388 9.37788 9.8399C10.1423 9.29179 11.0593 8.99701 12 8.99701C12.9407 8.99701 13.8577 9.29179 14.6221 9.8399C15.3866 10.388 15.9601 11.1619 16.262 12.0528C16.5638 12.9437 16.579 13.9068 16.3052 14.8067C16.0314 15.7067 15.4825 16.4982 14.7356 17.07C16.0629 17.6425 17.1716 18.6257 17.8987 19.875ZM12 16.5C12.5933 16.5 13.1734 16.3241 13.6667 15.9944C14.1601 15.6648 14.5446 15.1962 14.7716 14.6481C14.9987 14.0999 15.0581 13.4967 14.9424 12.9147C14.8266 12.3328 14.5409 11.7983 14.1213 11.3787C13.7018 10.9591 13.1672 10.6734 12.5853 10.5577C12.0033 10.4419 11.4001 10.5013 10.8519 10.7284C10.3038 10.9554 9.83524 11.34 9.50559 11.8333C9.17595 12.3267 9 12.9067 9 13.5C9 14.2957 9.31607 15.0587 9.87868 15.6213C10.4413 16.1839 11.2044 16.5 12 16.5ZM6.75 11.25C6.75 11.0511 6.67098 10.8603 6.53033 10.7197C6.38968 10.579 6.19891 10.5 6 10.5C5.57918 10.5 5.16681 10.3819 4.80972 10.1593C4.45263 9.93662 4.16514 9.61828 3.9799 9.24043C3.79467 8.86257 3.71911 8.44034 3.76181 8.0217C3.80451 7.60305 3.96376 7.20477 4.22148 6.8721C4.47919 6.53942 4.82503 6.28569 5.21972 6.13972C5.61441 5.99374 6.04212 5.96138 6.45428 6.04631C6.86644 6.13124 7.24652 6.33005 7.55135 6.62016C7.85618 6.91027 8.07355 7.28006 8.17875 7.68751C8.22848 7.88021 8.35272 8.04526 8.52414 8.14635C8.69556 8.24745 8.90012 8.27631 9.09281 8.22658C9.28551 8.17685 9.45056 8.05261 9.55165 7.88119C9.65275 7.70977 9.6816 7.50521 9.63188 7.31251C9.48585 6.7475 9.20998 6.22436 8.8262 5.78472C8.44242 5.34508 7.96133 5.00108 7.42121 4.78009C6.88108 4.5591 6.29684 4.46722 5.71496 4.51176C5.13308 4.5563 4.56963 4.73603 4.06943 5.03665C3.56924 5.33727 3.1461 5.75048 2.83371 6.24341C2.52131 6.73633 2.32827 7.29536 2.26994 7.87602C2.21161 8.45668 2.28961 9.04294 2.49773 9.58815C2.70585 10.1334 3.03834 10.6225 3.46875 11.0166C2.44995 11.4586 1.56442 12.1592 0.9 13.0491C0.780529 13.2082 0.729164 13.4083 0.757207 13.6053C0.785249 13.8023 0.890402 13.9801 1.04953 14.0995C1.20866 14.219 1.40873 14.2704 1.60573 14.2423C1.80274 14.2143 1.98053 14.1091 2.1 13.95C2.55205 13.3424 3.14045 12.8494 3.81784 12.5107C4.49522 12.172 5.24267 11.9971 6 12C6.19891 12 6.38968 11.921 6.53033 11.7803C6.67098 11.6397 6.75 11.4489 6.75 11.25Z" fill="#282B2E"/>
</svg>
