<svg width="12" height="16" viewBox="0 0 12 16" fill="none" xmlns="http://www.w3.org/2000/svg">
<path fill-rule="evenodd" clip-rule="evenodd" d="M6.75002 1.25C6.75002 0.835786 6.41423 0.5 6.00002 0.5C5.5858 0.5 5.25002 0.835786 5.25002 1.25V1.8125H4.83195C3.16315 1.8125 1.78195 3.11001 1.67778 4.77556L1.51203 7.42565C1.44883 8.43605 1.10961 9.40974 0.531318 10.2407C0.00880668 10.9915 0.473972 12.0284 1.38217 12.1374L3.93752 12.444V13.25C3.93752 14.3891 4.86093 15.3125 6.00002 15.3125C7.1391 15.3125 8.06252 14.3891 8.06252 13.25V12.444L10.6179 12.1374C11.5261 12.0284 11.9912 10.9915 11.4687 10.2407C10.8904 9.40974 10.5512 8.43605 10.488 7.42565L10.3222 4.77556C10.2181 3.11001 8.83687 1.8125 7.16807 1.8125H6.75002V1.25ZM4.83195 2.9375C3.7572 2.9375 2.86767 3.77313 2.80058 4.84579L2.63483 7.49588C2.55879 8.71173 2.15059 9.88341 1.45471 10.8833C1.41694 10.9376 1.45056 11.0125 1.51621 11.0204L4.31945 11.3568C5.43582 11.4908 6.5642 11.4908 7.68057 11.3568L10.4838 11.0204C10.5495 11.0125 10.5831 10.9376 10.5453 10.8833C9.84943 9.88341 9.44124 8.71173 9.36519 7.49588L9.19944 4.84578C9.13235 3.77313 8.24282 2.9375 7.16807 2.9375H4.83195ZM6.00002 14.1875C5.48225 14.1875 5.06252 13.7678 5.06252 13.25V12.6875H6.93752V13.25C6.93752 13.7678 6.51778 14.1875 6.00002 14.1875Z" fill="#282B2E"/>
</svg>