<svg width="18" height="18" viewBox="0 0 18 18" fill="none" xmlns="http://www.w3.org/2000/svg">
<path fill-rule="evenodd" clip-rule="evenodd" d="M9.00001 2.3094L7.34041 4.02653C7.16377 4.20929 6.92048 4.3125 6.6663 4.3125H4.31251V6.66629C4.31251 6.92047 4.2093 7.16376 4.02654 7.3404L2.30941 9L4.02654 10.6596C4.2093 10.8362 4.31251 11.0795 4.31251 11.3337V13.6875H6.6663C6.92048 13.6875 7.16377 13.7907 7.34041 13.9735L9.00001 15.6906L10.6596 13.9735C10.8363 13.7907 11.0795 13.6875 11.3337 13.6875H13.6875V11.3337C13.6875 11.0795 13.7907 10.8362 13.9735 10.6596L15.6906 9L13.9735 7.3404C13.7907 7.16376 13.6875 6.92048 13.6875 6.6663V4.3125H11.3337C11.0795 4.3125 10.8363 4.20929 10.6596 4.02653L9.00001 2.3094ZM8.3259 1.38808C8.69443 1.00677 9.30559 1.00678 9.67412 1.38808L11.4133 3.1875H13.875C14.3928 3.1875 14.8125 3.60723 14.8125 4.125V6.58675L16.6119 8.32589C16.9932 8.69442 16.9932 9.30558 16.6119 9.67411L14.8125 11.4132V13.875C14.8125 14.3928 14.3928 14.8125 13.875 14.8125H11.4133L9.67412 16.6119C9.30559 16.9932 8.69443 16.9932 8.3259 16.6119L6.58676 14.8125H4.12501C3.60725 14.8125 3.18751 14.3928 3.18751 13.875V11.4133L1.38809 9.67411C1.00679 9.30558 1.00679 8.69442 1.38809 8.32589L3.18751 6.58675V4.125C3.18751 3.60723 3.60725 3.1875 4.12501 3.1875H6.58676L8.3259 1.38808Z" fill="#282B2E"/>
<path fill-rule="evenodd" clip-rule="evenodd" d="M5.43751 9C5.43751 7.03249 7.0325 5.4375 9.00001 5.4375C10.9675 5.4375 12.5625 7.03249 12.5625 9C12.5625 10.9675 10.9675 12.5625 9.00001 12.5625C7.0325 12.5625 5.43751 10.9675 5.43751 9ZM9.00001 6.5625C7.65382 6.5625 6.56251 7.65381 6.56251 9C6.56251 10.3462 7.65382 11.4375 9.00001 11.4375C10.3462 11.4375 11.4375 10.3462 11.4375 9C11.4375 7.65381 10.3462 6.5625 9.00001 6.5625Z" fill="#282B2E"/>
</svg>
