<svg width="24" height="24" viewBox="0 0 24 24" fill="none" xmlns="http://www.w3.org/2000/svg">
<path d="M14.625 10.9153C14.511 10.8495 14.4163 10.7548 14.3504 10.6407C14.2846 10.5267 14.25 10.3973 14.25 10.2656V3.51562C14.2507 3.39605 14.2799 3.27837 14.3353 3.1724C14.3907 3.06643 14.4706 2.97523 14.5684 2.90643C14.6662 2.83762 14.7791 2.7932 14.8975 2.77686C15.016 2.76052 15.1366 2.77274 15.2494 2.8125C17.4385 3.58726 19.2794 5.11748 20.4412 7.12807C21.6031 9.13865 22.0096 11.4977 21.5878 13.7812C21.5659 13.8993 21.516 14.0104 21.4423 14.1052C21.3686 14.2 21.2731 14.2757 21.1641 14.3259C21.0658 14.3719 20.9585 14.3956 20.85 14.3953C20.7184 14.3954 20.589 14.3608 20.475 14.295L14.625 10.9153ZM15.75 4.65188V9.8325L20.2387 12.4228C20.25 12.2812 20.25 12.1388 20.25 12C20.2487 10.4797 19.8279 8.98928 19.0339 7.69279C18.2399 6.3963 17.1036 5.34404 15.75 4.65188ZM12 2.25C12.1989 2.25 12.3897 2.32902 12.5303 2.46967C12.671 2.61032 12.75 2.80109 12.75 3V11.6081L20.1384 15.9122C20.2242 15.9619 20.2992 16.0281 20.3592 16.107C20.4192 16.1858 20.463 16.2758 20.488 16.3717C20.513 16.4676 20.5188 16.5675 20.505 16.6656C20.4912 16.7638 20.458 16.8582 20.4075 16.9434C19.5415 18.4156 18.304 19.6344 16.8189 20.478C15.3337 21.3215 13.6531 21.7601 11.9451 21.7498C10.2372 21.7396 8.56191 21.2809 7.087 20.4196C5.61209 19.5583 4.3893 18.3247 3.54106 16.8422C2.69281 15.3598 2.24887 13.6805 2.25367 11.9726C2.25848 10.2646 2.71186 8.58787 3.56844 7.11022C4.42501 5.63257 5.65472 4.40586 7.13446 3.55289C8.61419 2.69993 10.292 2.25064 12 2.25ZM12 20.25C13.3093 20.2465 14.5991 19.9331 15.764 19.3354C16.9289 18.7377 17.9357 17.8727 18.7022 16.8113L11.6222 12.6863C11.5083 12.6205 11.4137 12.5259 11.3479 12.4121C11.282 12.2982 11.2473 12.169 11.2472 12.0375V3.78375C9.1318 3.97567 7.17194 4.9761 5.77565 6.57675C4.37935 8.1774 3.65423 10.2549 3.75124 12.3768C3.84824 14.4987 4.75991 16.5013 6.29643 17.9679C7.83295 19.4345 9.87592 20.2519 12 20.25Z" fill="#282B2E"/>
</svg>
