<svg width="25" height="25" viewBox="0 0 25 25" fill="none" xmlns="http://www.w3.org/2000/svg">
<path fill-rule="evenodd" clip-rule="evenodd" d="M8.0729 7.8125C8.0729 5.36749 10.055 3.38542 12.5 3.38542C14.945 3.38542 16.9271 5.36749 16.9271 7.8125C16.9271 10.2575 14.945 12.2396 12.5 12.2396C10.055 12.2396 8.0729 10.2575 8.0729 7.8125ZM12.5 4.94792C10.9179 4.94792 9.6354 6.23043 9.6354 7.8125C9.6354 9.39457 10.9179 10.6771 12.5 10.6771C14.082 10.6771 15.3646 9.39457 15.3646 7.8125C15.3646 6.23043 14.082 4.94792 12.5 4.94792Z" fill="#282B2E"/>
<path fill-rule="evenodd" clip-rule="evenodd" d="M8.33331 15.3646C7.0389 15.3646 5.98956 16.4139 5.98956 17.7083V18.9461C5.98956 18.965 6.00322 18.981 6.02182 18.9841C10.3122 19.6846 14.6878 19.6845 18.9781 18.9841C18.9967 18.981 19.0104 18.965 19.0104 18.9461V17.7083C19.0104 16.4139 17.9611 15.3646 16.6666 15.3646H16.3116C16.2841 15.3646 16.2568 15.3689 16.2307 15.3774L15.3292 15.6718C13.4908 16.2721 11.5092 16.2721 9.6708 15.6718L8.76922 15.3774C8.74312 15.3689 8.71584 15.3646 8.68838 15.3646H8.33331ZM4.42706 17.7083C4.42706 15.551 6.17595 13.8021 8.33331 13.8021H8.68838C8.88056 13.8021 9.07153 13.8325 9.25422 13.8921L10.1558 14.1865C11.679 14.6839 13.3209 14.6839 14.8442 14.1865L15.7457 13.8921C15.9284 13.8325 16.1194 13.8021 16.3116 13.8021H16.6666C18.824 13.8021 20.5729 15.551 20.5729 17.7083V18.9461C20.5729 19.7307 20.0043 20.3997 19.2299 20.5262C14.7728 21.2539 10.2272 21.2539 5.77005 20.5262C4.99569 20.3997 4.42706 19.7307 4.42706 18.9461V17.7083Z" fill="#282B2E"/>
</svg>
